<svg width="203" height="189" viewBox="0 0 203 189" fill="none" xmlns="http://www.w3.org/2000/svg">
<path fill-rule="evenodd" clip-rule="evenodd" d="M101.996 1.49827C116.897 4.22916 127.543 16.0919 140.301 23.923C151.686 30.9115 165.324 35.0978 173.499 45.3885C181.623 55.614 181.386 69.4209 186.014 81.4654C191.285 95.1858 204.754 107.187 202.81 121.681C200.888 136.01 186.691 145.763 176.015 156.015C166.071 165.563 155.183 174.022 142.388 179.7C129.681 185.339 115.973 189.851 101.996 188.864C88.3163 187.898 76.4003 180.505 64.3875 174.192C52.8399 168.123 41.2989 161.954 32.6839 152.437C23.9128 142.749 19.3116 130.695 14.2723 118.833C8.55869 105.383 -3.47242 91.6442 0.960309 77.7626C5.4752 63.6238 26.9682 61.606 36.3122 49.8123C45.9953 37.5905 43.1553 17.8069 55.8755 8.45052C68.3546 -0.728531 86.5175 -1.33849 101.996 1.49827Z" fill="url(#paint0_linear_801_195)"/>
<defs>
<linearGradient id="paint0_linear_801_195" x1="101.5" y1="0" x2="101.5" y2="189" gradientUnits="userSpaceOnUse">
<stop stop-color="#FD841F"/>
<stop offset="1" stop-color="#CD104D"/>
</linearGradient>
</defs>
</svg>
