<svg width="228" height="215" viewBox="0 0 228 215" fill="none" xmlns="http://www.w3.org/2000/svg">
<path fill-rule="evenodd" clip-rule="evenodd" d="M219.192 137.628C211.825 153.162 195.168 161.313 182.547 172.98C171.284 183.391 162.602 197.108 148.454 203.016C134.395 208.888 118.591 204.524 103.432 206.019C86.1651 207.722 68.5485 218.929 52.4393 212.488C36.5131 206.12 29.3285 187.647 20.5727 172.888C12.4179 159.141 5.78377 144.683 2.88629 128.959C0.00893856 113.344 -1.28891 96.9658 3.81098 81.9266C8.80238 67.2074 20.6811 56.3338 31.3462 45.033C41.5984 34.1698 51.9639 23.3437 65.3473 16.7225C78.9732 9.98132 94.1349 8.51745 109.2 6.51597C126.282 4.24665 145.488 -4.86668 160.187 4.12267C175.159 13.2786 171.382 37.4556 182.288 51.2117C193.59 65.4671 217.137 68.2331 224.284 84.9682C231.295 101.386 226.844 121.492 219.192 137.628Z" fill="url(#paint0_linear_801_194)"/>
<defs>
<linearGradient id="paint0_linear_801_194" x1="221.055" y1="137.529" x2="3.79516" y2="81.3418" gradientUnits="userSpaceOnUse">
<stop stop-color="rgba(225, 77, 42, 0.15)"/>
<stop offset="1" stop-color="rgba(156, 44, 119, 0.15)"/>
</linearGradient>
</defs>
</svg>
